<svg width="13" height="15" viewBox="0 0 13 15" fill="none" xmlns="http://www.w3.org/2000/svg">
<path d="M2.17444 5.94538H2.92444L2.92443 5.94433L2.17444 5.94538ZM6.69319 1.44538L6.69887 0.695402L6.69736 0.695394L6.69319 1.44538ZM12.0307 10.6954L12.6802 10.3204L12.6798 10.3196L12.0307 10.6954ZM11.5994 11.4454V12.1954L11.6021 12.1954L11.5994 11.4454ZM1.72444 11.4454L1.72179 12.1954H1.72444V11.4454ZM1.29319 10.6954L0.644115 10.3196L0.643669 10.3204L1.29319 10.6954ZM5.41199 11.4454C5.41199 11.0312 5.0762 10.6954 4.66199 10.6954C4.24777 10.6954 3.91199 11.0312 3.91199 11.4454H5.41199ZM4.66199 11.9454H3.91199H4.66199ZM9.41199 11.4454C9.41199 11.0312 9.0762 10.6954 8.66199 10.6954C8.24777 10.6954 7.91199 11.0312 7.91199 11.4454H9.41199ZM2.92443 5.94433C2.92374 5.4505 3.02075 4.96141 3.20989 4.50523L1.82426 3.93074C1.55935 4.56969 1.42346 5.25474 1.42444 5.94644L2.92443 5.94433ZM3.20989 4.50523C3.39902 4.04905 3.67654 3.6348 4.02646 3.28633L2.96801 2.22347C2.47789 2.71155 2.08918 3.29178 1.82426 3.93074L3.20989 4.50523ZM4.02646 3.28633C4.37638 2.93787 4.79178 2.66208 5.24874 2.47484L4.68001 1.08684C4.03996 1.34909 3.45812 1.73539 2.96801 2.22347L4.02646 3.28633ZM5.24874 2.47484C5.7057 2.2876 6.19519 2.19262 6.68901 2.19537L6.69736 0.695394C6.00567 0.691545 5.32006 0.82458 4.68001 1.08684L5.24874 2.47484ZM6.6875 2.19536C8.73703 2.21089 10.3994 3.91876 10.3994 6.00163H11.8994C11.8994 3.12201 9.59934 0.717377 6.69887 0.695404L6.6875 2.19536ZM10.3994 6.00163V6.44538H11.8994V6.00163H10.3994ZM10.3994 6.44538C10.3994 8.78912 10.8912 10.2241 11.3816 11.0712L12.6798 10.3196C12.3452 9.74168 11.8994 8.57665 11.8994 6.44538H10.3994ZM11.3812 11.0704C11.3593 11.0324 11.3477 10.9894 11.3477 10.9456L12.8477 10.9443C12.8475 10.7252 12.7897 10.5101 12.6802 10.3204L11.3812 11.0704ZM11.3477 10.9456C11.3476 10.9018 11.3591 10.8587 11.3809 10.8208L12.6813 11.5685C12.7905 11.3786 12.8479 11.1633 12.8477 10.9443L11.3477 10.9456ZM11.3809 10.8208C11.4028 10.7828 11.4342 10.7512 11.4721 10.7292L12.2255 12.0263C12.4149 11.9162 12.5721 11.7584 12.6813 11.5685L11.3809 10.8208ZM11.4721 10.7292C11.51 10.7072 11.553 10.6955 11.5968 10.6954L11.6021 12.1954C11.8211 12.1946 12.0361 12.1363 12.2255 12.0263L11.4721 10.7292ZM11.5994 10.6954H1.72444V12.1954H11.5994V10.6954ZM1.72708 10.6954C1.77088 10.6955 1.81388 10.7072 1.85177 10.7292L1.09834 12.0263C1.28775 12.1363 1.50275 12.1946 1.72179 12.1954L1.72708 10.6954ZM1.85177 10.7292C1.88965 10.7512 1.92109 10.7828 1.94292 10.8208L0.642563 11.5685C0.751752 11.7584 0.908925 11.9162 1.09834 12.0263L1.85177 10.7292ZM1.94292 10.8208C1.96476 10.8587 1.97623 10.9018 1.9762 10.9456L0.476197 10.9443C0.476003 11.1633 0.533374 11.3786 0.642563 11.5685L1.94292 10.8208ZM1.9762 10.9456C1.97616 10.9894 1.96461 11.0324 1.9427 11.0704L0.643669 10.3204C0.534143 10.5101 0.476391 10.7252 0.476197 10.9443L1.9762 10.9456ZM1.94225 11.0712C2.43266 10.2241 2.92444 8.78912 2.92444 6.44538H1.42444C1.42444 8.57665 0.978707 9.74167 0.644116 10.3196L1.94225 11.0712ZM2.92444 6.44538V5.94538H1.42444V6.44538H2.92444ZM3.91199 11.4454V11.9454H5.41199V11.4454H3.91199ZM3.91199 11.9454C3.91199 12.6747 4.20172 13.3742 4.71744 13.8899L5.7781 12.8293C5.54368 12.5948 5.41199 12.2769 5.41199 11.9454H3.91199ZM4.71744 13.8899C5.23317 14.4056 5.93264 14.6954 6.66199 14.6954V13.1954C6.33047 13.1954 6.01252 13.0637 5.7781 12.8293L4.71744 13.8899ZM6.66199 14.6954C7.39133 14.6954 8.09081 14.4056 8.60653 13.8899L7.54587 12.8293C7.31145 13.0637 6.99351 13.1954 6.66199 13.1954V14.6954ZM8.60653 13.8899C9.12226 13.3742 9.41199 12.6747 9.41199 11.9454H7.91199C7.91199 12.2769 7.78029 12.5948 7.54587 12.8293L8.60653 13.8899ZM9.41199 11.9454V11.4454H7.91199V11.9454H9.41199Z" fill="#777777"/>
</svg>
