<svg width="23" height="23" viewBox="0 0 23 23" fill="none" xmlns="http://www.w3.org/2000/svg">
<path d="M6.25649 5.76875C5.86597 6.15927 5.86597 6.79243 6.25649 7.18296C6.64702 7.57348 7.28018 7.57348 7.67071 7.18296L6.25649 5.76875ZM11.7363 1.70312L12.4434 0.996018C12.0529 0.605494 11.4197 0.605494 11.0292 0.996018L11.7363 1.70312ZM15.8019 7.18296C16.1925 7.57348 16.8256 7.57348 17.2162 7.18296C17.6067 6.79243 17.6067 6.15927 17.2162 5.76875L15.8019 7.18296ZM10.7363 14.4304C10.7363 14.9827 11.184 15.4304 11.7363 15.4304C12.2886 15.4304 12.7363 14.9827 12.7363 14.4304H10.7363ZM22.7363 14.4304C22.7363 13.8781 22.2886 13.4304 21.7363 13.4304C21.184 13.4304 20.7363 13.8781 20.7363 14.4304H22.7363ZM2.73633 14.4304C2.73633 13.8781 2.28861 13.4304 1.73633 13.4304C1.18404 13.4304 0.736328 13.8781 0.736328 14.4304H2.73633ZM7.67071 7.18296L12.4434 2.41023L11.0292 0.996018L6.25649 5.76875L7.67071 7.18296ZM11.0292 2.41023L15.8019 7.18296L17.2162 5.76875L12.4434 0.996018L11.0292 2.41023ZM12.7363 14.4304V1.70312H10.7363V14.4304H12.7363ZM20.7363 14.4304V20.794H22.7363V14.4304H20.7363ZM20.7363 20.794C20.7363 20.7699 20.7459 20.7468 20.763 20.7298L22.1772 22.144C22.5352 21.7859 22.7363 21.3004 22.7363 20.794H20.7363ZM20.763 20.7298C20.78 20.7127 20.8031 20.7031 20.8272 20.7031V22.7031C21.3336 22.7031 21.8191 22.502 22.1772 22.144L20.763 20.7298ZM20.8272 20.7031H2.64542V22.7031H20.8272V20.7031ZM2.64542 20.7031C2.66953 20.7031 2.69265 20.7127 2.7097 20.7298L1.29549 22.144C1.65351 22.502 2.1391 22.7031 2.64542 22.7031V20.7031ZM2.7097 20.7298C2.72675 20.7468 2.73633 20.7699 2.73633 20.794H0.736328C0.736328 21.3004 0.937464 21.7859 1.29549 22.144L2.7097 20.7298ZM2.73633 20.794V14.4304H0.736328V20.794H2.73633Z" fill="white"/>
</svg>
