<svg width="28" height="23" viewBox="0 0 28 23" fill="none" xmlns="http://www.w3.org/2000/svg">
<path d="M2.41812 8.97585L1.89403 8.12419C1.513 8.35867 1.33408 8.81771 1.45592 9.2482C1.57777 9.67868 1.97073 9.97585 2.41812 9.97585V8.97585ZM26.0545 8.97585V9.97585C26.5019 9.97585 26.8948 9.67868 27.0167 9.2482C27.1385 8.81771 26.9596 8.35867 26.5786 8.12419L26.0545 8.97585ZM14.2363 1.70312L14.7604 0.851467C14.439 0.653678 14.0336 0.653678 13.7122 0.851467L14.2363 1.70312ZM7.05449 8.97585C7.05449 8.42357 6.60677 7.97585 6.05449 7.97585C5.5022 7.97585 5.05449 8.42357 5.05449 8.97585H7.05449ZM5.05449 17.1577C5.05449 17.71 5.5022 18.1577 6.05449 18.1577C6.60677 18.1577 7.05449 17.71 7.05449 17.1577H5.05449ZM12.509 8.97585C12.509 8.42357 12.0613 7.97585 11.509 7.97585C10.9567 7.97585 10.509 8.42357 10.509 8.97585H12.509ZM10.509 17.1577C10.509 17.71 10.9567 18.1577 11.509 18.1577C12.0613 18.1577 12.509 17.71 12.509 17.1577H10.509ZM17.9636 8.97585C17.9636 8.42357 17.5159 7.97585 16.9636 7.97585C16.4113 7.97585 15.9636 8.42357 15.9636 8.97585H17.9636ZM15.9636 17.1577C15.9636 17.71 16.4113 18.1577 16.9636 18.1577C17.5159 18.1577 17.9636 17.71 17.9636 17.1577H15.9636ZM23.4181 8.97585C23.4181 8.42357 22.9704 7.97585 22.4181 7.97585C21.8658 7.97585 21.4181 8.42357 21.4181 8.97585H23.4181ZM21.4181 17.1577C21.4181 17.71 21.8658 18.1577 22.4181 18.1577C22.9704 18.1577 23.4181 17.71 23.4181 17.1577H21.4181ZM3.32722 16.1577C2.77493 16.1577 2.32722 16.6054 2.32722 17.1577C2.32722 17.71 2.77493 18.1577 3.32722 18.1577V16.1577ZM25.1454 18.1577C25.6977 18.1577 26.1454 17.71 26.1454 17.1577C26.1454 16.6054 25.6977 16.1577 25.1454 16.1577V18.1577ZM1.50903 20.7031C0.956748 20.7031 0.509033 21.1508 0.509033 21.7031C0.509033 22.2554 0.956748 22.7031 1.50903 22.7031V20.7031ZM26.9636 22.7031C27.5159 22.7031 27.9636 22.2554 27.9636 21.7031C27.9636 21.1508 27.5159 20.7031 26.9636 20.7031V22.7031ZM2.41812 9.97585H26.0545V7.97585H2.41812V9.97585ZM26.5786 8.12419L14.7604 0.851467L13.7122 2.55478L25.5304 9.82751L26.5786 8.12419ZM13.7122 0.851467L1.89403 8.12419L2.94222 9.82751L14.7604 2.55478L13.7122 0.851467ZM5.05449 8.97585V17.1577H7.05449V8.97585H5.05449ZM10.509 8.97585V17.1577H12.509V8.97585H10.509ZM15.9636 8.97585V17.1577H17.9636V8.97585H15.9636ZM21.4181 8.97585V17.1577H23.4181V8.97585H21.4181ZM3.32722 18.1577H25.1454V16.1577H3.32722V18.1577ZM1.50903 22.7031H26.9636V20.7031H1.50903V22.7031Z" fill="white"/>
</svg>
