<svg width="285" height="20" viewBox="0 0 285 20" fill="none" xmlns="http://www.w3.org/2000/svg">
<path d="M5.4 6.89531H15.8M5.4 10.8953H15.8M1 17.6953V2.49531C1 2.28314 1.08429 2.07966 1.23431 1.92963C1.38434 1.7796 1.58783 1.69531 1.8 1.69531H19.4C19.6122 1.69531 19.8157 1.7796 19.9657 1.92963C20.1157 2.07966 20.2 2.28314 20.2 2.49531V17.6953L17 16.0953L13.8 17.6953L10.6 16.0953L7.4 17.6953L4.2 16.0953L1 17.6953Z" stroke="#C98E26" stroke-width="1.5" stroke-linecap="round" stroke-linejoin="round"/>
<path d="M41.1434 7.34304H39.3707C39.3025 6.96425 39.1756 6.63092 38.99 6.34304C38.8044 6.05516 38.5771 5.81084 38.3082 5.61008C38.0392 5.40933 37.7381 5.25781 37.4047 5.15554C37.0752 5.05327 36.7248 5.00213 36.3536 5.00213C35.6832 5.00213 35.0828 5.17069 34.5525 5.50781C34.026 5.84493 33.6093 6.33925 33.3025 6.99077C32.9994 7.64228 32.8479 8.43774 32.8479 9.37713C32.8479 10.3241 32.9994 11.1233 33.3025 11.7749C33.6093 12.4264 34.0278 12.9188 34.5581 13.2521C35.0885 13.5855 35.685 13.7521 36.3479 13.7521C36.7153 13.7521 37.0638 13.7029 37.3934 13.6044C37.7267 13.5021 38.0278 13.3525 38.2968 13.1555C38.5657 12.9586 38.793 12.718 38.9786 12.4339C39.168 12.1461 39.2987 11.8165 39.3707 11.4453L41.1434 11.451C41.0487 12.023 40.865 12.5495 40.5922 13.0305C40.3233 13.5078 39.9767 13.9207 39.5525 14.2692C39.132 14.6139 38.651 14.8809 38.1093 15.0703C37.5676 15.2597 36.9767 15.3544 36.3366 15.3544C35.329 15.3544 34.4313 15.1158 33.6434 14.6385C32.8555 14.1574 32.2343 13.4699 31.7797 12.576C31.329 11.6821 31.1036 10.6158 31.1036 9.37713C31.1036 8.13471 31.3309 7.06842 31.7854 6.17827C32.24 5.28433 32.8612 4.59872 33.6491 4.12145C34.4369 3.64039 35.3328 3.39986 36.3366 3.39986C36.954 3.39986 37.5297 3.48887 38.0638 3.6669C38.6017 3.84115 39.0847 4.09872 39.5127 4.43963C39.9407 4.77675 40.2949 5.18963 40.5752 5.67827C40.8555 6.16312 41.0449 6.71804 41.1434 7.34304ZM46.784 15.3714C45.9658 15.3714 45.2518 15.1839 44.642 14.8089C44.0321 14.4339 43.5586 13.9093 43.2215 13.2351C42.8844 12.5608 42.7158 11.773 42.7158 10.8714C42.7158 9.96615 42.8844 9.17448 43.2215 8.49645C43.5586 7.81842 44.0321 7.2919 44.642 6.9169C45.2518 6.5419 45.9658 6.3544 46.784 6.3544C47.6022 6.3544 48.3162 6.5419 48.926 6.9169C49.5359 7.2919 50.0094 7.81842 50.3465 8.49645C50.6836 9.17448 50.8522 9.96615 50.8522 10.8714C50.8522 11.773 50.6836 12.5608 50.3465 13.2351C50.0094 13.9093 49.5359 14.4339 48.926 14.8089C48.3162 15.1839 47.6022 15.3714 46.784 15.3714ZM46.7897 13.9453C47.32 13.9453 47.7594 13.8052 48.1079 13.5249C48.4564 13.2446 48.7139 12.8714 48.8806 12.4055C49.051 11.9396 49.1363 11.4264 49.1363 10.8658C49.1363 10.3089 49.051 9.79759 48.8806 9.33168C48.7139 8.86198 48.4564 8.48509 48.1079 8.20099C47.7594 7.9169 47.32 7.77486 46.7897 7.77486C46.2556 7.77486 45.8124 7.9169 45.4601 8.20099C45.1117 8.48509 44.8522 8.86198 44.6817 9.33168C44.5151 9.79759 44.4317 10.3089 44.4317 10.8658C44.4317 11.4264 44.5151 11.9396 44.6817 12.4055C44.8522 12.8714 45.1117 13.2446 45.4601 13.5249C45.8124 13.8052 46.2556 13.9453 46.7897 13.9453ZM52.7485 15.1953V6.46804H54.3792V7.88849H54.4871C54.6689 7.40743 54.9663 7.03243 55.3792 6.76349C55.7921 6.49077 56.2864 6.3544 56.8621 6.3544C57.4455 6.3544 57.9341 6.49077 58.328 6.76349C58.7258 7.03622 59.0193 7.41122 59.2087 7.88849H59.2996C59.508 7.42259 59.8394 7.05137 60.2939 6.77486C60.7485 6.49455 61.2902 6.3544 61.9189 6.3544C62.7106 6.3544 63.3564 6.60251 63.8564 7.09872C64.3602 7.59493 64.6121 8.34304 64.6121 9.34304V15.1953H62.9133V9.50213C62.9133 8.91122 62.7523 8.48319 62.4303 8.21804C62.1083 7.95289 61.7239 7.82031 61.2769 7.82031C60.7239 7.82031 60.2939 7.99077 59.9871 8.33168C59.6803 8.6688 59.5269 9.10251 59.5269 9.63281V15.1953H57.8337V9.39418C57.8337 8.92069 57.686 8.54001 57.3905 8.25213C57.0951 7.96425 56.7106 7.82031 56.2371 7.82031C55.9152 7.82031 55.6178 7.90554 55.3451 8.07599C55.0761 8.24266 54.8583 8.47562 54.6917 8.77486C54.5288 9.0741 54.4474 9.42069 54.4474 9.81463V15.1953H52.7485ZM66.8891 18.468V6.46804H68.5482V7.88281H68.6903C68.7887 7.70099 68.9308 7.49077 69.1164 7.25213C69.302 7.01349 69.5596 6.80516 69.8891 6.62713C70.2187 6.44531 70.6543 6.3544 71.1959 6.3544C71.9005 6.3544 72.5293 6.53243 73.0823 6.88849C73.6353 7.24455 74.069 7.75781 74.3834 8.42827C74.7016 9.09872 74.8607 9.90554 74.8607 10.8487C74.8607 11.7919 74.7035 12.6006 74.3891 13.2749C74.0747 13.9453 73.6429 14.4624 73.0937 14.826C72.5444 15.1858 71.9175 15.3658 71.213 15.3658C70.6827 15.3658 70.249 15.2768 69.9118 15.0987C69.5785 14.9207 69.3171 14.7124 69.1278 14.4737C68.9384 14.2351 68.7925 14.023 68.6903 13.8374H68.588V18.468H66.8891ZM68.5539 10.8317C68.5539 11.4453 68.6429 11.9832 68.8209 12.4453C68.999 12.9074 69.2565 13.2692 69.5937 13.5305C69.9308 13.7881 70.3437 13.9169 70.8323 13.9169C71.3399 13.9169 71.7641 13.7824 72.105 13.5135C72.4459 13.2408 72.7035 12.8714 72.8778 12.4055C73.0558 11.9396 73.1448 11.415 73.1448 10.8317C73.1448 10.2559 73.0577 9.73887 72.8834 9.28054C72.713 8.82221 72.4554 8.46046 72.1107 8.19531C71.7698 7.93016 71.3437 7.79759 70.8323 7.79759C70.3399 7.79759 69.9232 7.92448 69.5823 8.17827C69.2452 8.43205 68.9895 8.78622 68.8153 9.24077C68.641 9.69531 68.5539 10.2256 68.5539 10.8317ZM76.7641 15.1953V6.46804H78.4062V7.8544H78.4971C78.6562 7.38471 78.9365 7.01539 79.338 6.74645C79.7433 6.47372 80.2016 6.33736 80.713 6.33736C80.819 6.33736 80.944 6.34115 81.088 6.34872C81.2357 6.3563 81.3512 6.36577 81.4346 6.37713V8.00213C81.3664 7.98319 81.2452 7.96236 81.0709 7.93963C80.8967 7.91312 80.7224 7.89986 80.5482 7.89986C80.1467 7.89986 79.7887 7.98508 79.4743 8.15554C79.1637 8.32221 78.9175 8.55516 78.7357 8.8544C78.5539 9.14986 78.463 9.48698 78.463 9.86577V15.1953H76.7641ZM86.2684 15.3714C85.4502 15.3714 84.7362 15.1839 84.1263 14.8089C83.5165 14.4339 83.043 13.9093 82.7059 13.2351C82.3688 12.5608 82.2002 11.773 82.2002 10.8714C82.2002 9.96615 82.3688 9.17448 82.7059 8.49645C83.043 7.81842 83.5165 7.2919 84.1263 6.9169C84.7362 6.5419 85.4502 6.3544 86.2684 6.3544C87.0866 6.3544 87.8006 6.5419 88.4104 6.9169C89.0203 7.2919 89.4938 7.81842 89.8309 8.49645C90.168 9.17448 90.3366 9.96615 90.3366 10.8714C90.3366 11.773 90.168 12.5608 89.8309 13.2351C89.4938 13.9093 89.0203 14.4339 88.4104 14.8089C87.8006 15.1839 87.0866 15.3714 86.2684 15.3714ZM86.2741 13.9453C86.8044 13.9453 87.2438 13.8052 87.5922 13.5249C87.9407 13.2446 88.1983 12.8714 88.365 12.4055C88.5354 11.9396 88.6207 11.4264 88.6207 10.8658C88.6207 10.3089 88.5354 9.79759 88.365 9.33168C88.1983 8.86198 87.9407 8.48509 87.5922 8.20099C87.2438 7.9169 86.8044 7.77486 86.2741 7.77486C85.74 7.77486 85.2968 7.9169 84.9445 8.20099C84.596 8.48509 84.3366 8.86198 84.1661 9.33168C83.9994 9.79759 83.9161 10.3089 83.9161 10.8658C83.9161 11.4264 83.9994 11.9396 84.1661 12.4055C84.3366 12.8714 84.596 13.2446 84.9445 13.5249C85.2968 13.8052 85.74 13.9453 86.2741 13.9453ZM99.4019 6.46804L96.2371 15.1953H94.4189L91.2485 6.46804H93.0724L95.2826 13.1839H95.3735L97.578 6.46804H99.4019ZM103.288 15.3885C102.735 15.3885 102.235 15.2862 101.788 15.0817C101.341 14.8733 100.987 14.5722 100.726 14.1783C100.468 13.7843 100.339 13.3014 100.339 12.7294C100.339 12.237 100.434 11.8317 100.623 11.5135C100.813 11.1953 101.069 10.9434 101.391 10.7578C101.713 10.5722 102.072 10.4321 102.47 10.3374C102.868 10.2427 103.273 10.1707 103.686 10.1214C104.209 10.0608 104.633 10.0116 104.959 9.97372C105.284 9.93205 105.521 9.86577 105.669 9.77486C105.817 9.68395 105.891 9.53622 105.891 9.33168V9.2919C105.891 8.79569 105.75 8.41122 105.47 8.13849C105.194 7.86577 104.781 7.7294 104.231 7.7294C103.659 7.7294 103.209 7.8563 102.879 8.11009C102.553 8.36009 102.328 8.63849 102.203 8.94531L100.606 8.58168C100.796 8.05137 101.072 7.62334 101.436 7.29759C101.803 6.96804 102.226 6.7294 102.703 6.58168C103.18 6.43016 103.682 6.3544 104.209 6.3544C104.557 6.3544 104.927 6.39607 105.317 6.4794C105.711 6.55895 106.078 6.70668 106.419 6.92258C106.764 7.13849 107.046 7.44721 107.266 7.84872C107.485 8.24645 107.595 8.76349 107.595 9.39986V15.1953H105.936V14.0021H105.868C105.758 14.2218 105.593 14.4377 105.373 14.6499C105.154 14.862 104.872 15.0381 104.527 15.1783C104.182 15.3184 103.769 15.3885 103.288 15.3885ZM103.658 14.0249C104.127 14.0249 104.529 13.9321 104.862 13.7464C105.199 13.5608 105.455 13.3184 105.629 13.0192C105.807 12.7161 105.896 12.3923 105.896 12.0476V10.9226C105.836 10.9832 105.718 11.04 105.544 11.093C105.373 11.1423 105.178 11.1858 104.959 11.2237C104.739 11.2578 104.525 11.29 104.317 11.3203C104.108 11.3468 103.934 11.3696 103.794 11.3885C103.464 11.4302 103.163 11.5002 102.891 11.5987C102.622 11.6972 102.406 11.8393 102.243 12.0249C102.084 12.2067 102.004 12.4491 102.004 12.7521C102.004 13.1726 102.159 13.4908 102.47 13.7067C102.781 13.9188 103.177 14.0249 103.658 14.0249ZM111.557 10.0135V15.1953H109.858V6.46804H111.489V7.88849H111.597C111.797 7.42637 112.112 7.05516 112.54 6.77486C112.972 6.49455 113.515 6.3544 114.17 6.3544C114.765 6.3544 115.286 6.4794 115.733 6.7294C116.18 6.97562 116.526 7.34304 116.773 7.83168C117.019 8.32031 117.142 8.92448 117.142 9.64418V15.1953H115.443V9.84872C115.443 9.21615 115.278 8.72183 114.949 8.36577C114.619 8.00592 114.167 7.82599 113.591 7.82599C113.197 7.82599 112.847 7.91122 112.54 8.08168C112.237 8.25213 111.996 8.50213 111.818 8.83168C111.644 9.15743 111.557 9.55137 111.557 10.0135ZM123.494 6.46804V7.83168H118.727V6.46804H123.494ZM120.006 4.37713H121.704V12.6328C121.704 12.9624 121.754 13.2105 121.852 13.3771C121.951 13.54 122.078 13.6518 122.233 13.7124C122.392 13.7692 122.564 13.7976 122.75 13.7976C122.886 13.7976 123.006 13.7881 123.108 13.7692C123.21 13.7502 123.29 13.7351 123.347 13.7237L123.653 15.1271C123.555 15.165 123.415 15.2029 123.233 15.2408C123.051 15.2824 122.824 15.3052 122.551 15.3089C122.104 15.3165 121.687 15.237 121.301 15.0703C120.915 14.9036 120.602 14.6461 120.364 14.2976C120.125 13.9491 120.006 13.5116 120.006 12.9851V4.37713ZM129.041 15.3714C128.181 15.3714 127.441 15.1877 126.82 14.8203C126.202 14.4491 125.725 13.9283 125.388 13.2578C125.054 12.5836 124.888 11.7938 124.888 10.8885C124.888 9.99455 125.054 9.20668 125.388 8.52486C125.725 7.84304 126.195 7.31084 126.797 6.92827C127.403 6.54569 128.111 6.3544 128.922 6.3544C129.414 6.3544 129.891 6.43584 130.354 6.59872C130.816 6.7616 131.23 7.01728 131.598 7.36577C131.965 7.71425 132.255 8.1669 132.467 8.72372C132.679 9.27675 132.785 9.9491 132.785 10.7408V11.343H125.848V10.0703H131.121C131.121 9.62334 131.03 9.22751 130.848 8.88281C130.666 8.53433 130.41 8.25971 130.081 8.05895C129.755 7.85819 129.373 7.75781 128.933 7.75781C128.456 7.75781 128.039 7.87524 127.683 8.11009C127.331 8.34115 127.058 8.64418 126.865 9.01918C126.676 9.39039 126.581 9.7938 126.581 10.2294V11.2237C126.581 11.8071 126.683 12.3033 126.888 12.7124C127.096 13.1214 127.386 13.4339 127.757 13.6499C128.128 13.862 128.562 13.968 129.058 13.968C129.38 13.968 129.674 13.9226 129.939 13.8317C130.204 13.737 130.433 13.5968 130.626 13.4112C130.82 13.2256 130.967 12.9964 131.07 12.7237L132.677 13.0135C132.549 13.487 132.318 13.9018 131.984 14.2578C131.655 14.6101 131.24 14.8847 130.74 15.0817C130.244 15.2749 129.677 15.3714 129.041 15.3714ZM142.172 15.3658C141.467 15.3658 140.838 15.1858 140.285 14.826C139.736 14.4624 139.304 13.9453 138.99 13.2749C138.679 12.6006 138.524 11.7919 138.524 10.8487C138.524 9.90554 138.681 9.09872 138.996 8.42827C139.314 7.75781 139.749 7.24455 140.302 6.88849C140.855 6.53243 141.482 6.3544 142.183 6.3544C142.725 6.3544 143.16 6.44531 143.49 6.62713C143.823 6.80516 144.081 7.01349 144.263 7.25213C144.448 7.49077 144.592 7.70099 144.695 7.88281H144.797V3.55895H146.496V15.1953H144.837V13.8374H144.695C144.592 14.023 144.445 14.2351 144.251 14.4737C144.062 14.7124 143.801 14.9207 143.467 15.0987C143.134 15.2768 142.702 15.3658 142.172 15.3658ZM142.547 13.9169C143.035 13.9169 143.448 13.7881 143.785 13.5305C144.126 13.2692 144.384 12.9074 144.558 12.4453C144.736 11.9832 144.825 11.4453 144.825 10.8317C144.825 10.2256 144.738 9.69531 144.564 9.24077C144.39 8.78622 144.134 8.43205 143.797 8.17827C143.46 7.92448 143.043 7.79759 142.547 7.79759C142.035 7.79759 141.609 7.93016 141.268 8.19531C140.927 8.46046 140.67 8.82221 140.496 9.28054C140.325 9.73887 140.24 10.2559 140.24 10.8317C140.24 11.415 140.327 11.9396 140.501 12.4055C140.676 12.8714 140.933 13.2408 141.274 13.5135C141.619 13.7824 142.043 13.9169 142.547 13.9169ZM152.682 15.3714C151.822 15.3714 151.081 15.1877 150.46 14.8203C149.843 14.4491 149.365 13.9283 149.028 13.2578C148.695 12.5836 148.528 11.7938 148.528 10.8885C148.528 9.99455 148.695 9.20668 149.028 8.52486C149.365 7.84304 149.835 7.31084 150.437 6.92827C151.043 6.54569 151.752 6.3544 152.562 6.3544C153.055 6.3544 153.532 6.43584 153.994 6.59872C154.456 6.7616 154.871 7.01728 155.239 7.36577C155.606 7.71425 155.896 8.1669 156.108 8.72372C156.32 9.27675 156.426 9.9491 156.426 10.7408V11.343H149.489V10.0703H154.761C154.761 9.62334 154.67 9.22751 154.489 8.88281C154.307 8.53433 154.051 8.25971 153.722 8.05895C153.396 7.85819 153.013 7.75781 152.574 7.75781C152.097 7.75781 151.68 7.87524 151.324 8.11009C150.972 8.34115 150.699 8.64418 150.506 9.01918C150.316 9.39039 150.222 9.7938 150.222 10.2294V11.2237C150.222 11.8071 150.324 12.3033 150.528 12.7124C150.737 13.1214 151.026 13.4339 151.398 13.6499C151.769 13.862 152.203 13.968 152.699 13.968C153.021 13.968 153.314 13.9226 153.579 13.8317C153.845 13.737 154.074 13.5968 154.267 13.4112C154.46 13.2256 154.608 12.9964 154.71 12.7237L156.318 13.0135C156.189 13.487 155.958 13.9018 155.625 14.2578C155.295 14.6101 154.881 14.8847 154.381 15.0817C153.884 15.2749 153.318 15.3714 152.682 15.3714ZM166.619 6.46804V7.83168H161.852V6.46804H166.619ZM163.131 4.37713H164.829V12.6328C164.829 12.9624 164.879 13.2105 164.977 13.3771C165.076 13.54 165.203 13.6518 165.358 13.7124C165.517 13.7692 165.689 13.7976 165.875 13.7976C166.011 13.7976 166.131 13.7881 166.233 13.7692C166.335 13.7502 166.415 13.7351 166.472 13.7237L166.778 15.1271C166.68 15.165 166.54 15.2029 166.358 15.2408C166.176 15.2824 165.949 15.3052 165.676 15.3089C165.229 15.3165 164.812 15.237 164.426 15.0703C164.04 14.9036 163.727 14.6461 163.489 14.2976C163.25 13.9491 163.131 13.5116 163.131 12.9851V4.37713ZM168.498 15.1953V6.46804H170.141V7.8544H170.231C170.391 7.38471 170.671 7.01539 171.072 6.74645C171.478 6.47372 171.936 6.33736 172.447 6.33736C172.553 6.33736 172.678 6.34115 172.822 6.34872C172.97 6.3563 173.086 6.36577 173.169 6.37713V8.00213C173.101 7.98319 172.98 7.96236 172.805 7.93963C172.631 7.91312 172.457 7.89986 172.283 7.89986C171.881 7.89986 171.523 7.98508 171.209 8.15554C170.898 8.32221 170.652 8.55516 170.47 8.8544C170.288 9.14986 170.197 9.48698 170.197 9.86577V15.1953H168.498ZM177.101 15.3885C176.548 15.3885 176.048 15.2862 175.601 15.0817C175.154 14.8733 174.8 14.5722 174.538 14.1783C174.281 13.7843 174.152 13.3014 174.152 12.7294C174.152 12.237 174.247 11.8317 174.436 11.5135C174.625 11.1953 174.881 10.9434 175.203 10.7578C175.525 10.5722 175.885 10.4321 176.283 10.3374C176.68 10.2427 177.086 10.1707 177.498 10.1214C178.021 10.0608 178.445 10.0116 178.771 9.97372C179.097 9.93205 179.334 9.86577 179.481 9.77486C179.629 9.68395 179.703 9.53622 179.703 9.33168V9.2919C179.703 8.79569 179.563 8.41122 179.283 8.13849C179.006 7.86577 178.593 7.7294 178.044 7.7294C177.472 7.7294 177.021 7.8563 176.692 8.11009C176.366 8.36009 176.141 8.63849 176.016 8.94531L174.419 8.58168C174.608 8.05137 174.885 7.62334 175.248 7.29759C175.616 6.96804 176.038 6.7294 176.516 6.58168C176.993 6.43016 177.495 6.3544 178.021 6.3544C178.37 6.3544 178.739 6.39607 179.129 6.4794C179.523 6.55895 179.891 6.70668 180.231 6.92258C180.576 7.13849 180.858 7.44721 181.078 7.84872C181.298 8.24645 181.408 8.76349 181.408 9.39986V15.1953H179.748V14.0021H179.68C179.57 14.2218 179.406 14.4377 179.186 14.6499C178.966 14.862 178.684 15.0381 178.339 15.1783C177.995 15.3184 177.582 15.3885 177.101 15.3885ZM177.47 14.0249C177.94 14.0249 178.341 13.9321 178.675 13.7464C179.012 13.5608 179.267 13.3184 179.442 13.0192C179.62 12.7161 179.709 12.3923 179.709 12.0476V10.9226C179.648 10.9832 179.531 11.04 179.356 11.093C179.186 11.1423 178.991 11.1858 178.771 11.2237C178.552 11.2578 178.338 11.29 178.129 11.3203C177.921 11.3468 177.747 11.3696 177.606 11.3885C177.277 11.4302 176.976 11.5002 176.703 11.5987C176.434 11.6972 176.218 11.8393 176.055 12.0249C175.896 12.2067 175.817 12.4491 175.817 12.7521C175.817 13.1726 175.972 13.4908 176.283 13.7067C176.593 13.9188 176.989 14.0249 177.47 14.0249ZM185.369 10.0135V15.1953H183.67V6.46804H185.301V7.88849H185.409C185.61 7.42637 185.924 7.05516 186.352 6.77486C186.784 6.49455 187.328 6.3544 187.983 6.3544C188.578 6.3544 189.098 6.4794 189.545 6.7294C189.992 6.97562 190.339 7.34304 190.585 7.83168C190.831 8.32031 190.954 8.92448 190.954 9.64418V15.1953H189.256V9.84872C189.256 9.21615 189.091 8.72183 188.761 8.36577C188.432 8.00592 187.979 7.82599 187.403 7.82599C187.009 7.82599 186.659 7.91122 186.352 8.08168C186.049 8.25213 185.809 8.50213 185.631 8.83168C185.456 9.15743 185.369 9.55137 185.369 10.0135ZM199.773 8.59872L198.233 8.87145C198.168 8.67448 198.066 8.48698 197.926 8.30895C197.79 8.13092 197.604 7.98508 197.369 7.87145C197.134 7.75781 196.841 7.70099 196.489 7.70099C196.007 7.70099 195.606 7.80895 195.284 8.02486C194.962 8.23698 194.801 8.5116 194.801 8.84872C194.801 9.14039 194.909 9.37524 195.125 9.55327C195.341 9.7313 195.689 9.87713 196.17 9.99077L197.557 10.3089C198.36 10.4946 198.958 10.7805 199.352 11.1669C199.746 11.5533 199.943 12.0552 199.943 12.6726C199.943 13.1953 199.792 13.6612 199.489 14.0703C199.189 14.4756 198.771 14.7938 198.233 15.0249C197.699 15.2559 197.079 15.3714 196.375 15.3714C195.398 15.3714 194.6 15.1631 193.983 14.7464C193.365 14.326 192.987 13.7294 192.847 12.9567L194.489 12.7067C194.591 13.1347 194.801 13.4586 195.119 13.6783C195.437 13.8942 195.852 14.0021 196.364 14.0021C196.92 14.0021 197.365 13.8866 197.699 13.6555C198.032 13.4207 198.199 13.1347 198.199 12.7976C198.199 12.5249 198.097 12.2957 197.892 12.1101C197.691 11.9245 197.382 11.7843 196.966 11.6896L195.489 11.3658C194.674 11.1802 194.072 10.8847 193.682 10.4794C193.295 10.0741 193.102 9.56084 193.102 8.93963C193.102 8.42448 193.246 7.97372 193.534 7.58736C193.822 7.20099 194.22 6.89986 194.727 6.68395C195.235 6.46425 195.816 6.3544 196.472 6.3544C197.415 6.3544 198.157 6.55895 198.699 6.96804C199.24 7.37334 199.598 7.9169 199.773 8.59872ZM204.351 15.3885C203.798 15.3885 203.298 15.2862 202.851 15.0817C202.404 14.8733 202.05 14.5722 201.788 14.1783C201.531 13.7843 201.402 13.3014 201.402 12.7294C201.402 12.237 201.497 11.8317 201.686 11.5135C201.875 11.1953 202.131 10.9434 202.453 10.7578C202.775 10.5722 203.135 10.4321 203.533 10.3374C203.93 10.2427 204.336 10.1707 204.748 10.1214C205.271 10.0608 205.695 10.0116 206.021 9.97372C206.347 9.93205 206.584 9.86577 206.731 9.77486C206.879 9.68395 206.953 9.53622 206.953 9.33168V9.2919C206.953 8.79569 206.813 8.41122 206.533 8.13849C206.256 7.86577 205.843 7.7294 205.294 7.7294C204.722 7.7294 204.271 7.8563 203.942 8.11009C203.616 8.36009 203.391 8.63849 203.266 8.94531L201.669 8.58168C201.858 8.05137 202.135 7.62334 202.498 7.29759C202.866 6.96804 203.288 6.7294 203.766 6.58168C204.243 6.43016 204.745 6.3544 205.271 6.3544C205.62 6.3544 205.989 6.39607 206.379 6.4794C206.773 6.55895 207.141 6.70668 207.481 6.92258C207.826 7.13849 208.108 7.44721 208.328 7.84872C208.548 8.24645 208.658 8.76349 208.658 9.39986V15.1953H206.998V14.0021H206.93C206.82 14.2218 206.656 14.4377 206.436 14.6499C206.216 14.862 205.934 15.0381 205.589 15.1783C205.245 15.3184 204.832 15.3885 204.351 15.3885ZM204.72 14.0249C205.19 14.0249 205.591 13.9321 205.925 13.7464C206.262 13.5608 206.517 13.3184 206.692 13.0192C206.87 12.7161 206.959 12.3923 206.959 12.0476V10.9226C206.898 10.9832 206.781 11.04 206.606 11.093C206.436 11.1423 206.241 11.1858 206.021 11.2237C205.802 11.2578 205.588 11.29 205.379 11.3203C205.171 11.3468 204.997 11.3696 204.856 11.3885C204.527 11.4302 204.226 11.5002 203.953 11.5987C203.684 11.6972 203.468 11.8393 203.305 12.0249C203.146 12.2067 203.067 12.4491 203.067 12.7521C203.067 13.1726 203.222 13.4908 203.533 13.7067C203.843 13.9188 204.239 14.0249 204.72 14.0249ZM214.597 15.3714C213.752 15.3714 213.025 15.1802 212.415 14.7976C211.809 14.4112 211.343 13.879 211.017 13.201C210.691 12.523 210.528 11.7464 210.528 10.8714C210.528 9.98508 210.695 9.20289 211.028 8.52486C211.362 7.84304 211.831 7.31084 212.437 6.92827C213.043 6.54569 213.757 6.3544 214.579 6.3544C215.242 6.3544 215.833 6.47751 216.352 6.72372C216.871 6.96615 217.29 7.30705 217.608 7.74645C217.93 8.18584 218.121 8.6991 218.182 9.28622H216.528C216.437 8.87713 216.229 8.52486 215.903 8.2294C215.581 7.93395 215.15 7.78622 214.608 7.78622C214.134 7.78622 213.72 7.91122 213.364 8.16122C213.011 8.40743 212.737 8.75971 212.54 9.21804C212.343 9.67259 212.244 10.2105 212.244 10.8317C212.244 11.468 212.341 12.0173 212.534 12.4794C212.727 12.9415 213 13.2995 213.352 13.5533C213.708 13.8071 214.127 13.9339 214.608 13.9339C214.93 13.9339 215.222 13.8752 215.483 13.7578C215.748 13.6366 215.97 13.4643 216.148 13.2408C216.329 13.0173 216.456 12.7483 216.528 12.4339H218.182C218.121 12.9983 217.937 13.5021 217.631 13.9453C217.324 14.3885 216.913 14.737 216.398 14.9908C215.886 15.2446 215.286 15.3714 214.597 15.3714ZM213.983 15.1499H215.097L215.006 15.6158C215.335 15.6688 215.623 15.8014 215.869 16.0135C216.115 16.2256 216.239 16.5457 216.239 16.9737C216.242 17.4851 216.021 17.8999 215.574 18.218C215.131 18.5362 214.489 18.6953 213.648 18.6953L213.614 17.7464C214.007 17.7464 214.326 17.6896 214.568 17.576C214.814 17.4624 214.939 17.2786 214.943 17.0249C214.947 16.7711 214.852 16.593 214.659 16.4908C214.47 16.3885 214.167 16.3165 213.75 16.2749L213.983 15.1499ZM222.538 15.3885C221.985 15.3885 221.485 15.2862 221.038 15.0817C220.591 14.8733 220.237 14.5722 219.976 14.1783C219.718 13.7843 219.589 13.3014 219.589 12.7294C219.589 12.237 219.684 11.8317 219.873 11.5135C220.063 11.1953 220.319 10.9434 220.641 10.7578C220.963 10.5722 221.322 10.4321 221.72 10.3374C222.118 10.2427 222.523 10.1707 222.936 10.1214C223.459 10.0608 223.883 10.0116 224.209 9.97372C224.534 9.93205 224.771 9.86577 224.919 9.77486C225.067 9.68395 225.141 9.53622 225.141 9.33168V9.2919C225.141 8.79569 225 8.41122 224.72 8.13849C224.444 7.86577 224.031 7.7294 223.481 7.7294C222.909 7.7294 222.459 7.8563 222.129 8.11009C221.803 8.36009 221.578 8.63849 221.453 8.94531L219.856 8.58168C220.046 8.05137 220.322 7.62334 220.686 7.29759C221.053 6.96804 221.476 6.7294 221.953 6.58168C222.43 6.43016 222.932 6.3544 223.459 6.3544C223.807 6.3544 224.177 6.39607 224.567 6.4794C224.961 6.55895 225.328 6.70668 225.669 6.92258C226.014 7.13849 226.296 7.44721 226.516 7.84872C226.735 8.24645 226.845 8.76349 226.845 9.39986V15.1953H225.186V14.0021H225.118C225.008 14.2218 224.843 14.4377 224.623 14.6499C224.404 14.862 224.122 15.0381 223.777 15.1783C223.432 15.3184 223.019 15.3885 222.538 15.3885ZM222.908 14.0249C223.377 14.0249 223.779 13.9321 224.112 13.7464C224.449 13.5608 224.705 13.3184 224.879 13.0192C225.057 12.7161 225.146 12.3923 225.146 12.0476V10.9226C225.086 10.9832 224.968 11.04 224.794 11.093C224.623 11.1423 224.428 11.1858 224.209 11.2237C223.989 11.2578 223.775 11.29 223.567 11.3203C223.358 11.3468 223.184 11.3696 223.044 11.3885C222.714 11.4302 222.413 11.5002 222.141 11.5987C221.872 11.6972 221.656 11.8393 221.493 12.0249C221.334 12.2067 221.254 12.4491 221.254 12.7521C221.254 13.1726 221.409 13.4908 221.72 13.7067C222.031 13.9188 222.427 14.0249 222.908 14.0249ZM221.839 5.41122L220.697 5.37713C220.697 4.74834 220.866 4.24645 221.203 3.87145C221.544 3.49645 221.964 3.30895 222.464 3.30895C222.695 3.30895 222.898 3.34872 223.072 3.42827C223.247 3.50402 223.409 3.59304 223.561 3.69531C223.716 3.7938 223.87 3.88281 224.021 3.96236C224.177 4.03811 224.349 4.07599 224.538 4.07599C224.758 4.07599 224.936 3.99266 225.072 3.82599C225.213 3.65933 225.283 3.45289 225.283 3.20668L226.402 3.28054C226.402 3.91312 226.231 4.41122 225.891 4.77486C225.55 5.13471 225.131 5.31652 224.635 5.32031C224.366 5.32031 224.142 5.28243 223.964 5.20668C223.79 5.12713 223.635 5.03812 223.498 4.93963C223.362 4.83736 223.222 4.74645 223.078 4.6669C222.934 4.58736 222.762 4.54758 222.561 4.54758C222.349 4.54758 222.175 4.63092 222.038 4.79758C221.906 4.96046 221.839 5.16501 221.839 5.41122ZM232.784 15.3714C231.966 15.3714 231.252 15.1839 230.642 14.8089C230.032 14.4339 229.559 13.9093 229.222 13.2351C228.884 12.5608 228.716 11.773 228.716 10.8714C228.716 9.96615 228.884 9.17448 229.222 8.49645C229.559 7.81842 230.032 7.2919 230.642 6.9169C231.252 6.5419 231.966 6.3544 232.784 6.3544C233.602 6.3544 234.316 6.5419 234.926 6.9169C235.536 7.2919 236.009 7.81842 236.347 8.49645C236.684 9.17448 236.852 9.96615 236.852 10.8714C236.852 11.773 236.684 12.5608 236.347 13.2351C236.009 13.9093 235.536 14.4339 234.926 14.8089C234.316 15.1839 233.602 15.3714 232.784 15.3714ZM232.79 13.9453C233.32 13.9453 233.759 13.8052 234.108 13.5249C234.456 13.2446 234.714 12.8714 234.881 12.4055C235.051 11.9396 235.136 11.4264 235.136 10.8658C235.136 10.3089 235.051 9.79759 234.881 9.33168C234.714 8.86198 234.456 8.48509 234.108 8.20099C233.759 7.9169 233.32 7.77486 232.79 7.77486C232.256 7.77486 231.812 7.9169 231.46 8.20099C231.112 8.48509 230.852 8.86198 230.682 9.33168C230.515 9.79759 230.432 10.3089 230.432 10.8658C230.432 11.4264 230.515 11.9396 230.682 12.4055C230.852 12.8714 231.112 13.2446 231.46 13.5249C231.812 13.8052 232.256 13.9453 232.79 13.9453Z" fill="#C98E26"/>
</svg>
