<svg width="23" height="23" viewBox="0 0 23 23" fill="none" xmlns="http://www.w3.org/2000/svg">
<path d="M18.4434 12.996C18.0529 12.6055 17.4197 12.6055 17.0292 12.996C16.6387 13.3865 16.6387 14.0197 17.0292 14.4102L18.4434 12.996ZM21.7363 17.7031L22.4434 18.4102C22.834 18.0197 22.834 17.3865 22.4434 16.996L21.7363 17.7031ZM17.0292 20.996C16.6387 21.3865 16.6387 22.0197 17.0292 22.4102C17.4197 22.8008 18.0529 22.8008 18.4434 22.4102L17.0292 20.996ZM1.73633 16.7031C1.18404 16.7031 0.736328 17.1508 0.736328 17.7031C0.736328 18.2554 1.18404 18.7031 1.73633 18.7031V16.7031ZM5.02922 10.4102C5.41975 10.8008 6.05291 10.8008 6.44343 10.4102C6.83396 10.0197 6.83396 9.38654 6.44343 8.99602L5.02922 10.4102ZM1.73633 5.70312L1.02922 4.99602C0.638697 5.38654 0.638697 6.01971 1.02922 6.41023L1.73633 5.70312ZM6.44343 2.41023C6.83396 2.01971 6.83396 1.38654 6.44343 0.996018C6.05291 0.605494 5.41975 0.605494 5.02922 0.996018L6.44343 2.41023ZM21.7363 6.70312C22.2886 6.70312 22.7363 6.25541 22.7363 5.70312C22.7363 5.15084 22.2886 4.70312 21.7363 4.70312V6.70312ZM17.0292 14.4102L21.0292 18.4102L22.4434 16.996L18.4434 12.996L17.0292 14.4102ZM21.0292 16.996L17.0292 20.996L18.4434 22.4102L22.4434 18.4102L21.0292 16.996ZM1.73633 18.7031H21.7363V16.7031H1.73633V18.7031ZM6.44343 8.99602L2.44343 4.99602L1.02922 6.41023L5.02922 10.4102L6.44343 8.99602ZM2.44343 6.41023L6.44343 2.41023L5.02922 0.996018L1.02922 4.99602L2.44343 6.41023ZM21.7363 4.70312H1.73633V6.70312H21.7363V4.70312Z" fill="white"/>
</svg>
