<svg width="22" height="23" viewBox="0 0 22 23" fill="none" xmlns="http://www.w3.org/2000/svg">
<path d="M11.2368 14.8597C13.538 14.8597 15.4035 12.9942 15.4035 10.693C15.4035 8.39185 13.538 6.52637 11.2368 6.52637C8.93563 6.52637 7.07015 8.39185 7.07015 10.693C7.07015 12.9942 8.93563 14.8597 11.2368 14.8597ZM11.2368 14.8597C9.85179 14.8597 8.49382 15.2426 7.31342 15.9671C6.13302 16.6916 5.17631 17.7289 4.54932 18.9639M11.2368 14.8597C12.6218 14.8597 13.9798 15.2426 15.1602 15.9671C16.3406 16.6916 17.2973 17.7289 17.9243 18.9639M21.2368 11.5264C21.2368 17.0492 16.7597 21.5264 11.2368 21.5264C5.71397 21.5264 1.23682 17.0492 1.23682 11.5264C1.23682 6.00352 5.71397 1.52637 11.2368 1.52637C16.7597 1.52637 21.2368 6.00352 21.2368 11.5264Z" stroke="white" stroke-width="1.5" stroke-linecap="round" stroke-linejoin="round"/>
</svg>
