<svg width="23" height="23" viewBox="0 0 23 23" fill="none" xmlns="http://www.w3.org/2000/svg">
<path d="M7.17071 8.95056C6.78018 8.56004 6.14702 8.56004 5.75649 8.95056C5.36597 9.34109 5.36597 9.97425 5.75649 10.3648L7.17071 8.95056ZM11.2363 14.4304L10.5292 15.1375C10.9197 15.528 11.5529 15.528 11.9434 15.1375L11.2363 14.4304ZM16.7162 10.3648C17.1067 9.97425 17.1067 9.34109 16.7162 8.95056C16.3256 8.56004 15.6925 8.56004 15.3019 8.95056L16.7162 10.3648ZM12.2363 1.70312C12.2363 1.15084 11.7886 0.703125 11.2363 0.703125C10.684 0.703125 10.2363 1.15084 10.2363 1.70312H12.2363ZM22.2363 14.4304C22.2363 13.8781 21.7886 13.4304 21.2363 13.4304C20.684 13.4304 20.2363 13.8781 20.2363 14.4304H22.2363ZM2.23633 14.4304C2.23633 13.8781 1.78861 13.4304 1.23633 13.4304C0.684043 13.4304 0.236328 13.8781 0.236328 14.4304H2.23633ZM5.75649 10.3648L10.5292 15.1375L11.9434 13.7233L7.17071 8.95056L5.75649 10.3648ZM11.9434 15.1375L16.7162 10.3648L15.3019 8.95056L10.5292 13.7233L11.9434 15.1375ZM10.2363 1.70312V14.4304H12.2363V1.70312H10.2363ZM20.2363 14.4304V20.794H22.2363V14.4304H20.2363ZM20.2363 20.794C20.2363 20.7699 20.2459 20.7468 20.263 20.7298L21.6772 22.144C22.0352 21.7859 22.2363 21.3004 22.2363 20.794H20.2363ZM20.263 20.7298C20.28 20.7127 20.3031 20.7031 20.3272 20.7031V22.7031C20.8336 22.7031 21.3191 22.502 21.6772 22.144L20.263 20.7298ZM20.3272 20.7031H2.14542V22.7031H20.3272V20.7031ZM2.14542 20.7031C2.16953 20.7031 2.19265 20.7127 2.2097 20.7298L0.795488 22.144C1.15351 22.502 1.6391 22.7031 2.14542 22.7031V20.7031ZM2.2097 20.7298C2.22675 20.7468 2.23633 20.7699 2.23633 20.794H0.236328C0.236328 21.3004 0.437464 21.7859 0.795488 22.144L2.2097 20.7298ZM2.23633 20.794V14.4304H0.236328V20.794H2.23633Z" fill="white"/>
</svg>
